%TF.GenerationSoftware,KiCad,Pcbnew,9.0.6*%
%TF.CreationDate,2025-12-13T19:46:04+02:00*%
%TF.ProjectId,colorsound_wah,636f6c6f-7273-46f7-956e-645f7761682e,rev?*%
%TF.SameCoordinates,Original*%
%TF.FileFunction,Copper,L2,Bot*%
%TF.FilePolarity,Positive*%
%FSLAX46Y46*%
G04 Gerber Fmt 4.6, Leading zero omitted, Abs format (unit mm)*
G04 Created by KiCad (PCBNEW 9.0.6) date 2025-12-13 19:46:04*
%MOMM*%
%LPD*%
G01*
G04 APERTURE LIST*
G04 Aperture macros list*
%AMRoundRect*
0 Rectangle with rounded corners*
0 $1 Rounding radius*
0 $2 $3 $4 $5 $6 $7 $8 $9 X,Y pos of 4 corners*
0 Add a 4 corners polygon primitive as box body*
4,1,4,$2,$3,$4,$5,$6,$7,$8,$9,$2,$3,0*
0 Add four circle primitives for the rounded corners*
1,1,$1+$1,$2,$3*
1,1,$1+$1,$4,$5*
1,1,$1+$1,$6,$7*
1,1,$1+$1,$8,$9*
0 Add four rect primitives between the rounded corners*
20,1,$1+$1,$2,$3,$4,$5,0*
20,1,$1+$1,$4,$5,$6,$7,0*
20,1,$1+$1,$6,$7,$8,$9,0*
20,1,$1+$1,$8,$9,$2,$3,0*%
G04 Aperture macros list end*
%TA.AperFunction,ComponentPad*%
%ADD10RoundRect,0.250000X0.550000X-0.950000X0.550000X0.950000X-0.550000X0.950000X-0.550000X-0.950000X0*%
%TD*%
%TA.AperFunction,ComponentPad*%
%ADD11O,1.600000X2.400000*%
%TD*%
%TA.AperFunction,ComponentPad*%
%ADD12R,1.500000X1.500000*%
%TD*%
%TA.AperFunction,ComponentPad*%
%ADD13C,1.600000*%
%TD*%
%TA.AperFunction,ComponentPad*%
%ADD14C,2.340000*%
%TD*%
%TA.AperFunction,ComponentPad*%
%ADD15C,2.000000*%
%TD*%
%TA.AperFunction,ComponentPad*%
%ADD16RoundRect,0.250000X-0.550000X-0.550000X0.550000X-0.550000X0.550000X0.550000X-0.550000X0.550000X0*%
%TD*%
%TA.AperFunction,ComponentPad*%
%ADD17RoundRect,0.287500X-0.287500X-0.287500X0.287500X-0.287500X0.287500X0.287500X-0.287500X0.287500X0*%
%TD*%
%TA.AperFunction,ComponentPad*%
%ADD18C,1.150000*%
%TD*%
%TA.AperFunction,ComponentPad*%
%ADD19C,1.500000*%
%TD*%
%TA.AperFunction,ComponentPad*%
%ADD20R,1.800000X1.800000*%
%TD*%
%TA.AperFunction,ComponentPad*%
%ADD21C,1.800000*%
%TD*%
%TA.AperFunction,Conductor*%
%ADD22C,0.500000*%
%TD*%
G04 APERTURE END LIST*
D10*
%TO.P,U1,1*%
%TO.N,Net-(C6-Pad1)*%
X143960000Y-89620000D03*
D11*
%TO.P,U1,2*%
%TO.N,Net-(D1-A)*%
X146500000Y-89620000D03*
%TO.P,U1,3*%
%TO.N,GND*%
X149040000Y-89620000D03*
%TO.P,U1,4*%
%TO.N,unconnected-(U1-Pad4)*%
X151580000Y-89620000D03*
%TO.P,U1,5*%
%TO.N,GND*%
X154120000Y-89620000D03*
%TO.P,U1,6*%
%TO.N,unconnected-(U1-Pad6)*%
X156660000Y-89620000D03*
%TO.P,U1,7,VSS*%
%TO.N,GND*%
X159200000Y-89620000D03*
%TO.P,U1,8*%
%TO.N,unconnected-(U1-Pad8)*%
X159200000Y-82000000D03*
%TO.P,U1,9*%
%TO.N,GND*%
X156660000Y-82000000D03*
%TO.P,U1,10*%
%TO.N,unconnected-(U1-Pad10)*%
X154120000Y-82000000D03*
%TO.P,U1,11*%
%TO.N,GND*%
X151580000Y-82000000D03*
%TO.P,U1,12*%
%TO.N,unconnected-(U1-Pad12)*%
X149040000Y-82000000D03*
%TO.P,U1,13*%
%TO.N,GND*%
X146500000Y-82000000D03*
%TO.P,U1,14,VDD*%
%TO.N,VCC*%
X143960000Y-82000000D03*
%TD*%
D12*
%TO.P,SW1,1,B*%
%TO.N,Net-(SW1-B)*%
X164460000Y-104500000D03*
D13*
%TO.P,SW1,2,C*%
%TO.N,Net-(SW1-C)*%
X161920000Y-104500000D03*
%TO.P,SW1,3,A*%
%TO.N,Net-(SW1-A)*%
X167000000Y-104500000D03*
%TD*%
D14*
%TO.P,RV2,1,1*%
%TO.N,Net-(R10-Pad1)*%
X147000000Y-73000000D03*
%TO.P,RV2,2,2*%
X149500000Y-68000000D03*
%TO.P,RV2,3,3*%
%TO.N,Net-(U2-+)*%
X152000000Y-73000000D03*
%TD*%
D13*
%TO.P,R12,1*%
%TO.N,Net-(C7-Pad2)*%
X166920000Y-97000000D03*
%TO.P,R12,2*%
%TO.N,Net-(C2-Pad2)*%
X177080000Y-97000000D03*
%TD*%
%TO.P,R8,1*%
%TO.N,Net-(C3-Pad1)*%
X177000000Y-71920000D03*
%TO.P,R8,2*%
%TO.N,GND*%
X177000000Y-82080000D03*
%TD*%
%TO.P,R7,1*%
%TO.N,Net-(C5-Pad2)*%
X182500000Y-82080000D03*
%TO.P,R7,2*%
%TO.N,Net-(C3-Pad2)*%
X182500000Y-71920000D03*
%TD*%
%TO.P,R9,1*%
%TO.N,Net-(C4-Pad2)*%
X177080000Y-85000000D03*
%TO.P,R9,2*%
%TO.N,Net-(SW1-B)*%
X166920000Y-85000000D03*
%TD*%
%TO.P,R11,1*%
%TO.N,Net-(R11-Pad1)*%
X135500000Y-68420000D03*
%TO.P,R11,2*%
%TO.N,Net-(C6-Pad1)*%
X135500000Y-78580000D03*
%TD*%
D14*
%TO.P,RV4,1,1*%
%TO.N,Net-(C7-Pad2)*%
X190495000Y-99000000D03*
%TO.P,RV4,2,2*%
%TO.N,Output*%
X187995000Y-104000000D03*
%TO.P,RV4,3,3*%
%TO.N,GND*%
X185495000Y-99000000D03*
%TD*%
%TO.P,RV1,1,1*%
%TO.N,Net-(SW1-A)*%
X154500000Y-101000000D03*
%TO.P,RV1,2,2*%
X152000000Y-106000000D03*
%TO.P,RV1,3,3*%
%TO.N,GND*%
X149500000Y-101000000D03*
%TD*%
D13*
%TO.P,R6,1*%
%TO.N,Net-(C3-Pad2)*%
X187500000Y-71920000D03*
%TO.P,R6,2*%
%TO.N,Net-(Q1-B)*%
X187500000Y-82080000D03*
%TD*%
%TO.P,R3,1*%
%TO.N,Net-(Q1-C)*%
X200580000Y-90000000D03*
%TO.P,R3,2*%
%TO.N,Net-(Q1-B)*%
X190420000Y-90000000D03*
%TD*%
%TO.P,R2,2*%
%TO.N,GND*%
X197500000Y-82080000D03*
%TO.P,R2,1*%
%TO.N,Input guitar*%
X197500000Y-71920000D03*
%TD*%
D15*
%TO.P,H7,1,1*%
%TO.N,GND*%
X201500000Y-104000000D03*
%TD*%
%TO.P,H6,1,1*%
%TO.N,GND*%
X201500000Y-95000000D03*
%TD*%
%TO.P,H1,1,1*%
%TO.N,Input guitar*%
X201500000Y-69500000D03*
%TD*%
D13*
%TO.P,C5,1*%
%TO.N,Net-(C4-Pad2)*%
X182500000Y-90000000D03*
%TO.P,C5,2*%
%TO.N,Net-(C5-Pad2)*%
X187500000Y-90000000D03*
%TD*%
D15*
%TO.P,H4,1,1*%
%TO.N,GND*%
X173500000Y-104000000D03*
%TD*%
D13*
%TO.P,R1,2*%
%TO.N,Net-(C1-Pad2)*%
X192500000Y-82080000D03*
%TO.P,R1,1*%
%TO.N,Net-(Q1-B)*%
X192500000Y-71920000D03*
%TD*%
D15*
%TO.P,H2,1,1*%
%TO.N,Output*%
X178000000Y-104000000D03*
%TD*%
%TO.P,H3,1,1*%
%TO.N,VCC*%
X201500000Y-99500000D03*
%TD*%
%TO.P,H5,1,1*%
%TO.N,GND*%
X201500000Y-74000000D03*
%TD*%
D13*
%TO.P,C7,2*%
%TO.N,Net-(C7-Pad2)*%
X169500000Y-93000000D03*
%TO.P,C7,1*%
%TO.N,Net-(C2-Pad2)*%
X174500000Y-93000000D03*
%TD*%
%TO.P,C8,1*%
%TO.N,Net-(C5-Pad2)*%
X196000000Y-85500000D03*
%TO.P,C8,2*%
%TO.N,Net-(Q1-C)*%
X191000000Y-85500000D03*
%TD*%
%TO.P,C4,1*%
%TO.N,Net-(Q1-B)*%
X187500000Y-85500000D03*
%TO.P,C4,2*%
%TO.N,Net-(C4-Pad2)*%
X182500000Y-85500000D03*
%TD*%
%TO.P,C2,2*%
%TO.N,Net-(C2-Pad2)*%
X186000000Y-95500000D03*
%TO.P,C2,1*%
%TO.N,Net-(Q1-C)*%
X191000000Y-95500000D03*
%TD*%
%TO.P,C1,2*%
%TO.N,Net-(C1-Pad2)*%
X192500000Y-69500000D03*
%TO.P,C1,1*%
%TO.N,Input guitar*%
X197500000Y-69500000D03*
%TD*%
%TO.P,R5,1*%
%TO.N,Net-(C7-Pad2)*%
X177080000Y-89000000D03*
%TO.P,R5,2*%
%TO.N,GND*%
X166920000Y-89000000D03*
%TD*%
%TO.P,R10,1*%
%TO.N,Net-(R10-Pad1)*%
X140500000Y-68420000D03*
%TO.P,R10,2*%
%TO.N,Net-(D1-A)*%
X140500000Y-78580000D03*
%TD*%
D16*
%TO.P,C6,1*%
%TO.N,Net-(C6-Pad1)*%
X147544900Y-95500000D03*
D13*
%TO.P,C6,2*%
%TO.N,GND*%
X149544900Y-95500000D03*
%TD*%
%TO.P,R4,2*%
%TO.N,Net-(Q1-C)*%
X196500000Y-93420000D03*
%TO.P,R4,1*%
%TO.N,VCC*%
X196500000Y-103580000D03*
%TD*%
D14*
%TO.P,RV3,1,1*%
%TO.N,Net-(D1-A)*%
X164500000Y-68000000D03*
%TO.P,RV3,2,2*%
X162000000Y-73000000D03*
%TO.P,RV3,3,3*%
%TO.N,Net-(R11-Pad1)*%
X159500000Y-68000000D03*
%TD*%
D17*
%TO.P,U2,1,-*%
%TO.N,GND*%
X129500000Y-97600000D03*
D18*
%TO.P,U2,2,+*%
%TO.N,Net-(U2-+)*%
X129500000Y-101400000D03*
%TO.P,U2,3*%
%TO.N,GND*%
X144500000Y-96960000D03*
%TO.P,U2,4*%
%TO.N,Net-(SW1-C)*%
X144500000Y-102040000D03*
%TD*%
D19*
%TO.P,Q1,3,C*%
%TO.N,Net-(Q1-C)*%
X201000000Y-87000000D03*
%TO.P,Q1,2,B*%
%TO.N,Net-(Q1-B)*%
X201000000Y-84460000D03*
D12*
%TO.P,Q1,1,E*%
%TO.N,GND*%
X201000000Y-81920000D03*
%TD*%
D20*
%TO.P,D1,1,K*%
%TO.N,GND*%
X131500000Y-87270000D03*
D21*
%TO.P,D1,2,A*%
%TO.N,Net-(D1-A)*%
X131500000Y-84730000D03*
%TD*%
D13*
%TO.P,C3,1*%
%TO.N,Net-(C3-Pad1)*%
X182500000Y-69500000D03*
%TO.P,C3,2*%
%TO.N,Net-(C3-Pad2)*%
X187500000Y-69500000D03*
%TD*%
D22*
%TO.N,Net-(SW1-C)*%
X161008000Y-103588000D02*
X161920000Y-104500000D01*
X146048000Y-103588000D02*
X161008000Y-103588000D01*
X144500000Y-102040000D02*
X146048000Y-103588000D01*
%TO.N,Output*%
X178000000Y-104000000D02*
X187995000Y-104000000D01*
%TO.N,Net-(U2-+)*%
X149122000Y-75878000D02*
X152000000Y-73000000D01*
X136419800Y-75878000D02*
X149122000Y-75878000D01*
X128468200Y-83829600D02*
X136419800Y-75878000D01*
X128468200Y-100368200D02*
X128468200Y-83829600D01*
X129500000Y-101400000D02*
X128468200Y-100368200D01*
%TO.N,Net-(SW1-A)*%
X165781300Y-105718700D02*
X167000000Y-104500000D01*
X163188800Y-105718700D02*
X165781300Y-105718700D01*
X163188800Y-103979000D02*
X163188800Y-105718700D01*
X160209800Y-101000000D02*
X163188800Y-103979000D01*
X154500000Y-101000000D02*
X160209800Y-101000000D01*
X162907500Y-106000000D02*
X152000000Y-106000000D01*
X163188800Y-105718700D02*
X162907500Y-106000000D01*
%TO.N,Net-(R11-Pad1)*%
X157879300Y-66379300D02*
X159500000Y-68000000D01*
X137540700Y-66379300D02*
X157879300Y-66379300D01*
X135500000Y-68420000D02*
X137540700Y-66379300D01*
%TO.N,Net-(R10-Pad1)*%
X149500000Y-68000000D02*
X145750000Y-71750000D01*
X142420000Y-68420000D02*
X145750000Y-71750000D01*
X140500000Y-68420000D02*
X142420000Y-68420000D01*
X145750000Y-71750000D02*
X147000000Y-73000000D01*
%TO.N,Net-(SW1-B)*%
X164460000Y-87460000D02*
X164460000Y-104500000D01*
X166920000Y-85000000D02*
X164460000Y-87460000D01*
%TO.N,VCC*%
X143960000Y-82000000D02*
X143960000Y-80300000D01*
X196500000Y-103580000D02*
X196934200Y-103145800D01*
X197854200Y-103145800D02*
X196934200Y-103145800D01*
X201500000Y-99500000D02*
X197854200Y-103145800D01*
X178870200Y-80300000D02*
X143960000Y-80300000D01*
X182360200Y-83790000D02*
X178870200Y-80300000D01*
X182593000Y-83790000D02*
X182360200Y-83790000D01*
X185523800Y-86720800D02*
X182593000Y-83790000D01*
X185523800Y-91860900D02*
X185523800Y-86720800D01*
X190975600Y-97312700D02*
X185523800Y-91860900D01*
X191101100Y-97312700D02*
X190975600Y-97312700D01*
X196934200Y-103145800D02*
X191101100Y-97312700D01*
%TO.N,Net-(D1-A)*%
X156420000Y-78580000D02*
X162000000Y-73000000D01*
X140500000Y-78580000D02*
X156420000Y-78580000D01*
X164500000Y-70500000D02*
X164500000Y-68000000D01*
X162000000Y-73000000D02*
X164500000Y-70500000D01*
X134350000Y-84730000D02*
X131500000Y-84730000D01*
X140500000Y-78580000D02*
X134350000Y-84730000D01*
X140779500Y-87920000D02*
X146500000Y-87920000D01*
X140079300Y-88620200D02*
X140779500Y-87920000D01*
X130402900Y-88620200D02*
X140079300Y-88620200D01*
X130149800Y-88367100D02*
X130402900Y-88620200D01*
X130149800Y-86080200D02*
X130149800Y-88367100D01*
X131500000Y-84730000D02*
X130149800Y-86080200D01*
X146500000Y-89620000D02*
X146500000Y-87920000D01*
%TO.N,Net-(C7-Pad2)*%
X166920000Y-95580000D02*
X166920000Y-97000000D01*
X169500000Y-93000000D02*
X166920000Y-95580000D01*
X173500000Y-89000000D02*
X169500000Y-93000000D01*
X177080000Y-89000000D02*
X173500000Y-89000000D01*
X190495000Y-98201300D02*
X190495000Y-99000000D01*
X185971100Y-93677400D02*
X190495000Y-98201300D01*
X181757400Y-93677400D02*
X185971100Y-93677400D01*
X177080000Y-89000000D02*
X181757400Y-93677400D01*
%TO.N,GND*%
X197660000Y-81920000D02*
X197500000Y-82080000D01*
X201000000Y-81920000D02*
X197660000Y-81920000D01*
X143860000Y-97600000D02*
X144500000Y-96960000D01*
X129500000Y-97600000D02*
X143860000Y-97600000D01*
X148244400Y-99744400D02*
X149500000Y-101000000D01*
X148244400Y-96960000D02*
X148244400Y-99744400D01*
X144500000Y-96960000D02*
X148244400Y-96960000D01*
X201500000Y-74000000D02*
X201500000Y-80666500D01*
X201496500Y-80670000D02*
X201500000Y-80666500D01*
X201000000Y-80670000D02*
X201496500Y-80670000D01*
X202246400Y-94253600D02*
X201500000Y-95000000D01*
X202246400Y-80952200D02*
X202246400Y-94253600D01*
X201960700Y-80666500D02*
X202246400Y-80952200D01*
X201500000Y-80666500D02*
X201960700Y-80666500D01*
X201000000Y-81920000D02*
X201000000Y-80670000D01*
X149544900Y-95659500D02*
X149544900Y-95500000D01*
X148244400Y-96960000D02*
X149544900Y-95659500D01*
X149544900Y-91824900D02*
X149040000Y-91320000D01*
X149544900Y-95500000D02*
X149544900Y-91824900D01*
X146500000Y-82000000D02*
X146500000Y-83700000D01*
X154120000Y-89620000D02*
X154120000Y-88120000D01*
X131500000Y-87270000D02*
X132900000Y-87270000D01*
X149040000Y-90053600D02*
X149040000Y-91320000D01*
X149040000Y-90053600D02*
X149040000Y-89620000D01*
X149040000Y-89620000D02*
X149040000Y-87920000D01*
X202961300Y-102538700D02*
X201500000Y-104000000D01*
X202961300Y-96461300D02*
X202961300Y-102538700D01*
X201500000Y-95000000D02*
X202961300Y-96461300D01*
X178500000Y-99000000D02*
X185495000Y-99000000D01*
X173500000Y-104000000D02*
X178500000Y-99000000D01*
X200668000Y-104832000D02*
X201500000Y-104000000D01*
X191327000Y-104832000D02*
X200668000Y-104832000D01*
X185495000Y-99000000D02*
X191327000Y-104832000D01*
X149040000Y-87920000D02*
X154120000Y-87920000D01*
X154120000Y-87920000D02*
X154120000Y-88120000D01*
X159200000Y-89620000D02*
X159200000Y-87920000D01*
X156660000Y-86021800D02*
X156660000Y-82000000D01*
X156018200Y-86021800D02*
X156660000Y-86021800D01*
X154120000Y-87920000D02*
X156018200Y-86021800D01*
X157301800Y-86021800D02*
X159200000Y-87920000D01*
X156660000Y-86021800D02*
X157301800Y-86021800D01*
X170682500Y-82080000D02*
X177000000Y-82080000D01*
X168241300Y-84521200D02*
X170682500Y-82080000D01*
X167469900Y-83749800D02*
X168241300Y-84521200D01*
X163370200Y-83749800D02*
X167469900Y-83749800D01*
X159200000Y-87920000D02*
X163370200Y-83749800D01*
X168241300Y-87678700D02*
X166920000Y-89000000D01*
X168241300Y-84521200D02*
X168241300Y-87678700D01*
X136470000Y-83700000D02*
X146500000Y-83700000D01*
X132900000Y-87270000D02*
X136470000Y-83700000D01*
X151580000Y-82000000D02*
X151580000Y-83700000D01*
X149040000Y-86240000D02*
X151580000Y-83700000D01*
X146500000Y-83700000D02*
X149040000Y-86240000D01*
X149040000Y-86240000D02*
X149040000Y-87920000D01*
X165669800Y-90250200D02*
X166920000Y-89000000D01*
X165669800Y-97523700D02*
X165669800Y-90250200D01*
X172146100Y-104000000D02*
X165669800Y-97523700D01*
X173500000Y-104000000D02*
X172146100Y-104000000D01*
%TO.N,Net-(C6-Pad1)*%
X143960000Y-91915100D02*
X143960000Y-89620000D01*
X147544900Y-95500000D02*
X143960000Y-91915100D01*
X129449700Y-84630300D02*
X135500000Y-78580000D01*
X129449700Y-88657200D02*
X129449700Y-84630300D01*
X130412500Y-89620000D02*
X129449700Y-88657200D01*
X143960000Y-89620000D02*
X130412500Y-89620000D01*
%TO.N,Net-(C5-Pad2)*%
X187502200Y-87270200D02*
X187502200Y-87270100D01*
X187502200Y-89997800D02*
X187502200Y-87270200D01*
X187500000Y-90000000D02*
X187502200Y-89997800D01*
X182500000Y-82268000D02*
X182500000Y-82080000D01*
X187502200Y-87270100D02*
X182500000Y-82268000D01*
X195417800Y-84917800D02*
X196000000Y-85500000D01*
X194427600Y-84917800D02*
X195417800Y-84917800D01*
X193727600Y-84217800D02*
X194427600Y-84917800D01*
X190421900Y-84217800D02*
X193727600Y-84217800D01*
X189497700Y-85142000D02*
X190421900Y-84217800D01*
X189497700Y-85274600D02*
X189497700Y-85142000D01*
X187502200Y-87270100D02*
X189497700Y-85274600D01*
%TO.N,Net-(Q1-B)*%
X187500000Y-76920000D02*
X187500000Y-82080000D01*
X192500000Y-71920000D02*
X187500000Y-76920000D01*
X198829300Y-84460000D02*
X197780600Y-85508700D01*
X201000000Y-84460000D02*
X198829300Y-84460000D01*
X193289300Y-90000000D02*
X190420000Y-90000000D01*
X197780600Y-85508700D02*
X193289300Y-90000000D01*
X187500000Y-84955200D02*
X188937600Y-83517600D01*
X187500000Y-85500000D02*
X187500000Y-84955200D01*
X195789400Y-83517600D02*
X188937600Y-83517600D01*
X197780600Y-85508700D02*
X195789400Y-83517600D01*
X188937600Y-83517600D02*
X187500000Y-82080000D01*
%TO.N,Net-(C4-Pad2)*%
X177580000Y-85500000D02*
X177080000Y-85000000D01*
X182500000Y-85500000D02*
X177580000Y-85500000D01*
X182500000Y-85500000D02*
X182500000Y-90000000D01*
%TO.N,Net-(C3-Pad1)*%
X179420000Y-69500000D02*
X177000000Y-71920000D01*
X182500000Y-69500000D02*
X179420000Y-69500000D01*
%TO.N,Net-(C3-Pad2)*%
X187500000Y-69500000D02*
X187500000Y-71920000D01*
X187500000Y-71920000D02*
X182500000Y-71920000D01*
%TO.N,Net-(C2-Pad2)*%
X174500000Y-93000000D02*
X177790000Y-96290000D01*
X178580000Y-95500000D02*
X177790000Y-96290000D01*
X186000000Y-95500000D02*
X178580000Y-95500000D01*
X177790000Y-96290000D02*
X177080000Y-97000000D01*
%TO.N,Net-(Q1-C)*%
X200580000Y-87420000D02*
X200580000Y-90000000D01*
X201000000Y-87000000D02*
X200580000Y-87420000D01*
X197160000Y-93420000D02*
X196500000Y-93420000D01*
X200580000Y-90000000D02*
X197160000Y-93420000D01*
X192038400Y-94461600D02*
X191000000Y-95500000D01*
X192038400Y-93420000D02*
X192038400Y-94461600D01*
X196500000Y-93420000D02*
X192038400Y-93420000D01*
X189166900Y-87333100D02*
X191000000Y-85500000D01*
X189166900Y-90548500D02*
X189166900Y-87333100D01*
X192038400Y-93420000D02*
X189166900Y-90548500D01*
%TO.N,Net-(C1-Pad2)*%
X193790100Y-80789900D02*
X192500000Y-82080000D01*
X193790100Y-70790100D02*
X193790100Y-80789900D01*
X192500000Y-69500000D02*
X193790100Y-70790100D01*
%TO.N,Input guitar*%
X197500000Y-69500000D02*
X201500000Y-69500000D01*
X197500000Y-69500000D02*
X197500000Y-71920000D01*
%TD*%
M02*
