%TF.GenerationSoftware,KiCad,Pcbnew,9.0.6*%
%TF.CreationDate,2025-12-13T19:46:04+02:00*%
%TF.ProjectId,colorsound_wah,636f6c6f-7273-46f7-956e-645f7761682e,rev?*%
%TF.SameCoordinates,Original*%
%TF.FileFunction,Copper,L1,Top*%
%TF.FilePolarity,Positive*%
%FSLAX46Y46*%
G04 Gerber Fmt 4.6, Leading zero omitted, Abs format (unit mm)*
G04 Created by KiCad (PCBNEW 9.0.6) date 2025-12-13 19:46:04*
%MOMM*%
%LPD*%
G01*
G04 APERTURE LIST*
G04 Aperture macros list*
%AMRoundRect*
0 Rectangle with rounded corners*
0 $1 Rounding radius*
0 $2 $3 $4 $5 $6 $7 $8 $9 X,Y pos of 4 corners*
0 Add a 4 corners polygon primitive as box body*
4,1,4,$2,$3,$4,$5,$6,$7,$8,$9,$2,$3,0*
0 Add four circle primitives for the rounded corners*
1,1,$1+$1,$2,$3*
1,1,$1+$1,$4,$5*
1,1,$1+$1,$6,$7*
1,1,$1+$1,$8,$9*
0 Add four rect primitives between the rounded corners*
20,1,$1+$1,$2,$3,$4,$5,0*
20,1,$1+$1,$4,$5,$6,$7,0*
20,1,$1+$1,$6,$7,$8,$9,0*
20,1,$1+$1,$8,$9,$2,$3,0*%
G04 Aperture macros list end*
%TA.AperFunction,ComponentPad*%
%ADD10RoundRect,0.250000X0.550000X-0.950000X0.550000X0.950000X-0.550000X0.950000X-0.550000X-0.950000X0*%
%TD*%
%TA.AperFunction,ComponentPad*%
%ADD11O,1.600000X2.400000*%
%TD*%
%TA.AperFunction,ComponentPad*%
%ADD12R,1.500000X1.500000*%
%TD*%
%TA.AperFunction,ComponentPad*%
%ADD13C,1.600000*%
%TD*%
%TA.AperFunction,ComponentPad*%
%ADD14C,2.340000*%
%TD*%
%TA.AperFunction,ComponentPad*%
%ADD15C,2.000000*%
%TD*%
%TA.AperFunction,ComponentPad*%
%ADD16RoundRect,0.250000X-0.550000X-0.550000X0.550000X-0.550000X0.550000X0.550000X-0.550000X0.550000X0*%
%TD*%
%TA.AperFunction,ComponentPad*%
%ADD17RoundRect,0.287500X-0.287500X-0.287500X0.287500X-0.287500X0.287500X0.287500X-0.287500X0.287500X0*%
%TD*%
%TA.AperFunction,ComponentPad*%
%ADD18C,1.150000*%
%TD*%
%TA.AperFunction,ComponentPad*%
%ADD19C,1.500000*%
%TD*%
%TA.AperFunction,ComponentPad*%
%ADD20R,1.800000X1.800000*%
%TD*%
%TA.AperFunction,ComponentPad*%
%ADD21C,1.800000*%
%TD*%
G04 APERTURE END LIST*
D10*
%TO.P,U1,1*%
%TO.N,Net-(C6-Pad1)*%
X143960000Y-89620000D03*
D11*
%TO.P,U1,2*%
%TO.N,Net-(D1-A)*%
X146500000Y-89620000D03*
%TO.P,U1,3*%
%TO.N,GND*%
X149040000Y-89620000D03*
%TO.P,U1,4*%
%TO.N,unconnected-(U1-Pad4)*%
X151580000Y-89620000D03*
%TO.P,U1,5*%
%TO.N,GND*%
X154120000Y-89620000D03*
%TO.P,U1,6*%
%TO.N,unconnected-(U1-Pad6)*%
X156660000Y-89620000D03*
%TO.P,U1,7,VSS*%
%TO.N,GND*%
X159200000Y-89620000D03*
%TO.P,U1,8*%
%TO.N,unconnected-(U1-Pad8)*%
X159200000Y-82000000D03*
%TO.P,U1,9*%
%TO.N,GND*%
X156660000Y-82000000D03*
%TO.P,U1,10*%
%TO.N,unconnected-(U1-Pad10)*%
X154120000Y-82000000D03*
%TO.P,U1,11*%
%TO.N,GND*%
X151580000Y-82000000D03*
%TO.P,U1,12*%
%TO.N,unconnected-(U1-Pad12)*%
X149040000Y-82000000D03*
%TO.P,U1,13*%
%TO.N,GND*%
X146500000Y-82000000D03*
%TO.P,U1,14,VDD*%
%TO.N,VCC*%
X143960000Y-82000000D03*
%TD*%
D12*
%TO.P,SW1,1,B*%
%TO.N,Net-(SW1-B)*%
X164460000Y-104500000D03*
D13*
%TO.P,SW1,2,C*%
%TO.N,Net-(SW1-C)*%
X161920000Y-104500000D03*
%TO.P,SW1,3,A*%
%TO.N,Net-(SW1-A)*%
X167000000Y-104500000D03*
%TD*%
D14*
%TO.P,RV2,1,1*%
%TO.N,Net-(R10-Pad1)*%
X147000000Y-73000000D03*
%TO.P,RV2,2,2*%
X149500000Y-68000000D03*
%TO.P,RV2,3,3*%
%TO.N,Net-(U2-+)*%
X152000000Y-73000000D03*
%TD*%
D13*
%TO.P,R12,1*%
%TO.N,Net-(C7-Pad2)*%
X166920000Y-97000000D03*
%TO.P,R12,2*%
%TO.N,Net-(C2-Pad2)*%
X177080000Y-97000000D03*
%TD*%
%TO.P,R8,1*%
%TO.N,Net-(C3-Pad1)*%
X177000000Y-71920000D03*
%TO.P,R8,2*%
%TO.N,GND*%
X177000000Y-82080000D03*
%TD*%
%TO.P,R7,1*%
%TO.N,Net-(C5-Pad2)*%
X182500000Y-82080000D03*
%TO.P,R7,2*%
%TO.N,Net-(C3-Pad2)*%
X182500000Y-71920000D03*
%TD*%
%TO.P,R9,1*%
%TO.N,Net-(C4-Pad2)*%
X177080000Y-85000000D03*
%TO.P,R9,2*%
%TO.N,Net-(SW1-B)*%
X166920000Y-85000000D03*
%TD*%
%TO.P,R11,1*%
%TO.N,Net-(R11-Pad1)*%
X135500000Y-68420000D03*
%TO.P,R11,2*%
%TO.N,Net-(C6-Pad1)*%
X135500000Y-78580000D03*
%TD*%
D14*
%TO.P,RV4,1,1*%
%TO.N,Net-(C7-Pad2)*%
X190495000Y-99000000D03*
%TO.P,RV4,2,2*%
%TO.N,Output*%
X187995000Y-104000000D03*
%TO.P,RV4,3,3*%
%TO.N,GND*%
X185495000Y-99000000D03*
%TD*%
%TO.P,RV1,1,1*%
%TO.N,Net-(SW1-A)*%
X154500000Y-101000000D03*
%TO.P,RV1,2,2*%
X152000000Y-106000000D03*
%TO.P,RV1,3,3*%
%TO.N,GND*%
X149500000Y-101000000D03*
%TD*%
D13*
%TO.P,R6,1*%
%TO.N,Net-(C3-Pad2)*%
X187500000Y-71920000D03*
%TO.P,R6,2*%
%TO.N,Net-(Q1-B)*%
X187500000Y-82080000D03*
%TD*%
%TO.P,R3,1*%
%TO.N,Net-(Q1-C)*%
X200580000Y-90000000D03*
%TO.P,R3,2*%
%TO.N,Net-(Q1-B)*%
X190420000Y-90000000D03*
%TD*%
%TO.P,R2,2*%
%TO.N,GND*%
X197500000Y-82080000D03*
%TO.P,R2,1*%
%TO.N,Input guitar*%
X197500000Y-71920000D03*
%TD*%
D15*
%TO.P,H7,1,1*%
%TO.N,GND*%
X201500000Y-104000000D03*
%TD*%
%TO.P,H6,1,1*%
%TO.N,GND*%
X201500000Y-95000000D03*
%TD*%
%TO.P,H1,1,1*%
%TO.N,Input guitar*%
X201500000Y-69500000D03*
%TD*%
D13*
%TO.P,C5,1*%
%TO.N,Net-(C4-Pad2)*%
X182500000Y-90000000D03*
%TO.P,C5,2*%
%TO.N,Net-(C5-Pad2)*%
X187500000Y-90000000D03*
%TD*%
D15*
%TO.P,H4,1,1*%
%TO.N,GND*%
X173500000Y-104000000D03*
%TD*%
D13*
%TO.P,R1,2*%
%TO.N,Net-(C1-Pad2)*%
X192500000Y-82080000D03*
%TO.P,R1,1*%
%TO.N,Net-(Q1-B)*%
X192500000Y-71920000D03*
%TD*%
D15*
%TO.P,H2,1,1*%
%TO.N,Output*%
X178000000Y-104000000D03*
%TD*%
%TO.P,H3,1,1*%
%TO.N,VCC*%
X201500000Y-99500000D03*
%TD*%
%TO.P,H5,1,1*%
%TO.N,GND*%
X201500000Y-74000000D03*
%TD*%
D13*
%TO.P,C7,2*%
%TO.N,Net-(C7-Pad2)*%
X169500000Y-93000000D03*
%TO.P,C7,1*%
%TO.N,Net-(C2-Pad2)*%
X174500000Y-93000000D03*
%TD*%
%TO.P,C8,1*%
%TO.N,Net-(C5-Pad2)*%
X196000000Y-85500000D03*
%TO.P,C8,2*%
%TO.N,Net-(Q1-C)*%
X191000000Y-85500000D03*
%TD*%
%TO.P,C4,1*%
%TO.N,Net-(Q1-B)*%
X187500000Y-85500000D03*
%TO.P,C4,2*%
%TO.N,Net-(C4-Pad2)*%
X182500000Y-85500000D03*
%TD*%
%TO.P,C2,2*%
%TO.N,Net-(C2-Pad2)*%
X186000000Y-95500000D03*
%TO.P,C2,1*%
%TO.N,Net-(Q1-C)*%
X191000000Y-95500000D03*
%TD*%
%TO.P,C1,2*%
%TO.N,Net-(C1-Pad2)*%
X192500000Y-69500000D03*
%TO.P,C1,1*%
%TO.N,Input guitar*%
X197500000Y-69500000D03*
%TD*%
%TO.P,R5,1*%
%TO.N,Net-(C7-Pad2)*%
X177080000Y-89000000D03*
%TO.P,R5,2*%
%TO.N,GND*%
X166920000Y-89000000D03*
%TD*%
%TO.P,R10,1*%
%TO.N,Net-(R10-Pad1)*%
X140500000Y-68420000D03*
%TO.P,R10,2*%
%TO.N,Net-(D1-A)*%
X140500000Y-78580000D03*
%TD*%
D16*
%TO.P,C6,1*%
%TO.N,Net-(C6-Pad1)*%
X147544900Y-95500000D03*
D13*
%TO.P,C6,2*%
%TO.N,GND*%
X149544900Y-95500000D03*
%TD*%
%TO.P,R4,2*%
%TO.N,Net-(Q1-C)*%
X196500000Y-93420000D03*
%TO.P,R4,1*%
%TO.N,VCC*%
X196500000Y-103580000D03*
%TD*%
D14*
%TO.P,RV3,1,1*%
%TO.N,Net-(D1-A)*%
X164500000Y-68000000D03*
%TO.P,RV3,2,2*%
X162000000Y-73000000D03*
%TO.P,RV3,3,3*%
%TO.N,Net-(R11-Pad1)*%
X159500000Y-68000000D03*
%TD*%
D17*
%TO.P,U2,1,-*%
%TO.N,GND*%
X129500000Y-97600000D03*
D18*
%TO.P,U2,2,+*%
%TO.N,Net-(U2-+)*%
X129500000Y-101400000D03*
%TO.P,U2,3*%
%TO.N,GND*%
X144500000Y-96960000D03*
%TO.P,U2,4*%
%TO.N,Net-(SW1-C)*%
X144500000Y-102040000D03*
%TD*%
D19*
%TO.P,Q1,3,C*%
%TO.N,Net-(Q1-C)*%
X201000000Y-87000000D03*
%TO.P,Q1,2,B*%
%TO.N,Net-(Q1-B)*%
X201000000Y-84460000D03*
D12*
%TO.P,Q1,1,E*%
%TO.N,GND*%
X201000000Y-81920000D03*
%TD*%
D20*
%TO.P,D1,1,K*%
%TO.N,GND*%
X131500000Y-87270000D03*
D21*
%TO.P,D1,2,A*%
%TO.N,Net-(D1-A)*%
X131500000Y-84730000D03*
%TD*%
D13*
%TO.P,C3,1*%
%TO.N,Net-(C3-Pad1)*%
X182500000Y-69500000D03*
%TO.P,C3,2*%
%TO.N,Net-(C3-Pad2)*%
X187500000Y-69500000D03*
%TD*%
M02*
